# xmcd
#
# Track frame offsets:
#	150
#	25369
#	50280
#	68688
#	89871
#	108277
#	134859
#	150827
#	172843
#	182727
#	197760
#	220834
#	239792
#	257248
#	286635
#
# Disc length: 4157 seconds
#
# Revision: 0
# Processed by: cddbd v1.4b42PL1 Copyright (c) Steve Scherf et al.
# Submitted via: dBpowerAMP V4.0
#
DISCID=d8103b0f
DTITLE=Bob Brozman and Schnapka - Kosmik Blues and Grooves
DYEAR=1900
DGENRE=Blues
TTITLE0=Tropical Funk (Puin Sai)
TTITLE1=Jinx Blues-Hop
TTITLE2=Three-Beat Ska
TTITLE3=Calcutta Blues
TTITLE4=Maj Khamaj
TTITLE5=Indian Camel Hump Blues
TTITLE6=Schadenfreude Blues
TTITLE7=Aloha Afrika
TTITLE8=Five Pound Axe Blues
TTITLE9=Afrikanische Mazurka
TTITLE10=Schlaflied fur Zoe
TTITLE11=Toast Hawaii (Debussy in Madagascar)
TTITLE12=Blues Schlaflied
TTITLE13=A Joint von Mumbassa
TTITLE14=Blackest Blues
EXTD=
EXTT0=
EXTT1=
EXTT2=
EXTT3=
EXTT4=
EXTT5=
EXTT6=
EXTT7=
EXTT8=
EXTT9=
EXTT10=
EXTT11=
EXTT12=
EXTT13=
EXTT14=
PLAYORDER=
